# xmcd
# 
# Track frame offsets:
#     150
#     16530
#     30773
#     51338
#     70623
#     87584
#     102120
#     119167
#     143330
#     162150
#     179104
#     209142
#     226847
#     244168
#     255580
#     265454
#     296729
#     322859
#     336044
# 
# Disc length: 4719
# 
# Revision: 1
# Processed by: cddbd v1.5.2PL0 Copyright (c) Steve Scherf et al.
# Submitted via: fre:ac v1.0.17
# 
DISCID=0d126d13
DTITLE=Various Artist - Stunt records compilation vol 16
DYEAR=2008
DGENRE=Jazz
TTITLE0=Michael Blake - Single petal of a rose
TTITLE1=Rosendal.Earl.Templeton - Crystal clear
TTITLE2=Veronica Mortensen - Broken bicycles
TTITLE3=Anders Bergcrantz - Runeberg
TTITLE4=Gunde on Garner - Just the way you are
TTITLE5=Silvana Malta - Samba Rasgado
TTITLE6=The Hans Ulrik - Steve Swallow - Jonas Johansen Trio - Broadway
TTITLE7=Peter Fuglsang Quartet - Cherokee
TTITLE8=Thomas Clausen - A dream is a wish your heart makes
TTITLE9=Malene Mortensen - I´ve got my love to keep me warm
TTITLE10=Horace Parlan Trio - Everything happens to me
TTITLE11=Søren Kristiansen - Tea with art
TTITLE12=Jakob Dinesen - Dont waste your time
TTITLE13=Lelo Nika - Shake
TTITLE14=Jazz kamikaze - speedball
TTITLE15=Groove Factor - Organ funk
TTITLE16=Ibrahim Electric - Splash
TTITLE17=Bobo Moreno and EWABB - How high the moon
TTITLE18=Jens Søndergaard Quartet - Y. I. Blues
EXTD=YEAR: 2008
EXTT0=
EXTT1=
EXTT2=
EXTT3=
EXTT4=
EXTT5=
EXTT6=
EXTT7=
EXTT8=
EXTT9=
EXTT10=
EXTT11=
EXTT12=
EXTT13=
EXTT14=
EXTT15=
EXTT16=
EXTT17=
EXTT18=
PLAYORDER=
